{
    "asset" : {
        "generator" : "Khronos glTF Blender I/O v1.4.40",
        "version" : "2.0"
    },
    "scene" : 0,
    "scenes" : [
        {
            "name" : "Scene",
            "nodes" : [
                0,
                1,
                2
            ]
        }
    ],
    "nodes" : [
        {
            "name" : "Light",
            "rotation" : [
                0.16907575726509094,
                0.7558803558349609,
                -0.27217137813568115,
                0.570947527885437
            ],
            "translation" : [
                4.076245307922363,
                5.903861999511719,
                -1.0054539442062378
            ]
        },
        {
            "name" : "Camera",
            "rotation" : [
                0.483536034822464,
                0.33687159419059753,
                -0.20870360732078552,
                0.7804827094078064
            ],
            "translation" : [
                7.358891487121582,
                4.958309173583984,
                6.925790786743164
            ]
        },
        {
            "mesh" : 0,
            "name" : "mitsuba",
            "rotation" : [
                0.7071068286895752,
                0,
                0,
                0.7071067094802856
            ]
        }
    ],
    "materials" : [
        {
            "doubleSided" : true,
            "name" : "backdrop",
            "pbrMetallicRoughness" : {
                "baseColorFactor" : [
                    0.2,
                    0.2,
                    0.2,
                    1
                ],
                "metallicFactor" : 0,
                "roughnessFactor" : 0.5
            }
        },
        {
            "doubleSided" : true,
            "name" : "inside",
            "pbrMetallicRoughness" : {
                "baseColorFactor" : [
                    0.966653, 0.802156, 0.323968, 1
                ],
                "metallicFactor" : 1,
                "roughnessFactor" : 0.1
            }
        },
        {
            "doubleSided" : true,
            "name" : "case",
            "pbrMetallicRoughness" : {
                "baseColorFactor" : [
                    0.966653, 0.802156, 0.323968, 1
                ],
                "metallicFactor" : 1,
                "roughnessFactor" : 0.1
            }
        }
    ],
    "meshes" : [
        {
            "name" : "mitsuba",
            "primitives" : [
                {
                    "attributes" : {
                        "POSITION" : 0,
                        "NORMAL" : 1,
                        "TANGENT" : 2,
                        "TEXCOORD_0" : 3
                    },
                    "indices" : 4,
                    "material" : 0
                },
                {
                    "attributes" : {
                        "POSITION" : 5,
                        "NORMAL" : 6,
                        "TANGENT" : 7,
                        "TEXCOORD_0" : 8
                    },
                    "indices" : 9,
                    "material" : 1
                },
                {
                    "attributes" : {
                        "POSITION" : 10,
                        "NORMAL" : 11,
                        "TANGENT" : 12,
                        "TEXCOORD_0" : 13
                    },
                    "indices" : 14,
                    "material" : 2
                }
            ]
        }
    ],
    "accessors" : [
        {
            "bufferView" : 0,
            "componentType" : 5126,
            "count" : 289,
            "max" : [
                6.781899929046631,
                2.8864998817443848,
                0.05130000039935112
            ],
            "min" : [
                -6.008600234985352,
                -6.84089994430542,
                -7.719600200653076
            ],
            "type" : "VEC3"
        },
        {
            "bufferView" : 1,
            "componentType" : 5126,
            "count" : 289,
            "type" : "VEC3"
        },
        {
            "bufferView" : 2,
            "componentType" : 5126,
            "count" : 289,
            "type" : "VEC4"
        },
        {
            "bufferView" : 3,
            "componentType" : 5126,
            "count" : 289,
            "type" : "VEC2"
        },
        {
            "bufferView" : 4,
            "componentType" : 5123,
            "count" : 1536,
            "type" : "SCALAR"
        },
        {
            "bufferView" : 5,
            "componentType" : 5126,
            "count" : 2078,
            "max" : [
                1.0605000257492065,
                1.0688999891281128,
                0.035599999129772186
            ],
            "min" : [
                -1.0605000257492065,
                -1.0521999597549438,
                -1.9292999505996704
            ],
            "type" : "VEC3"
        },
        {
            "bufferView" : 6,
            "componentType" : 5126,
            "count" : 2078,
            "type" : "VEC3"
        },
        {
            "bufferView" : 7,
            "componentType" : 5126,
            "count" : 2078,
            "type" : "VEC4"
        },
        {
            "bufferView" : 8,
            "componentType" : 5126,
            "count" : 2078,
            "type" : "VEC2"
        },
        {
            "bufferView" : 9,
            "componentType" : 5123,
            "count" : 11808,
            "type" : "SCALAR"
        },
        {
            "bufferView" : 10,
            "componentType" : 5126,
            "count" : 29576,
            "max" : [
                1.2199000120162964,
                1.1426000595092773,
                0.01940000057220459
            ],
            "min" : [
                -1.2199000120162964,
                -1.080299973487854,
                -2.170300006866455
            ],
            "type" : "VEC3"
        },
        {
            "bufferView" : 11,
            "componentType" : 5126,
            "count" : 29576,
            "type" : "VEC3"
        },
        {
            "bufferView" : 12,
            "componentType" : 5126,
            "count" : 29576,
            "type" : "VEC4"
        },
        {
            "bufferView" : 13,
            "componentType" : 5126,
            "count" : 29576,
            "type" : "VEC2"
        },
        {
            "bufferView" : 14,
            "componentType" : 5123,
            "count" : 171456,
            "type" : "SCALAR"
        }
    ],
    "bufferViews" : [
        {
            "buffer" : 0,
            "byteLength" : 3468,
            "byteOffset" : 0
        },
        {
            "buffer" : 0,
            "byteLength" : 3468,
            "byteOffset" : 3468
        },
        {
            "buffer" : 0,
            "byteLength" : 4624,
            "byteOffset" : 6936
        },
        {
            "buffer" : 0,
            "byteLength" : 2312,
            "byteOffset" : 11560
        },
        {
            "buffer" : 0,
            "byteLength" : 3072,
            "byteOffset" : 13872
        },
        {
            "buffer" : 0,
            "byteLength" : 24936,
            "byteOffset" : 16944
        },
        {
            "buffer" : 0,
            "byteLength" : 24936,
            "byteOffset" : 41880
        },
        {
            "buffer" : 0,
            "byteLength" : 33248,
            "byteOffset" : 66816
        },
        {
            "buffer" : 0,
            "byteLength" : 16624,
            "byteOffset" : 100064
        },
        {
            "buffer" : 0,
            "byteLength" : 23616,
            "byteOffset" : 116688
        },
        {
            "buffer" : 0,
            "byteLength" : 354912,
            "byteOffset" : 140304
        },
        {
            "buffer" : 0,
            "byteLength" : 354912,
            "byteOffset" : 495216
        },
        {
            "buffer" : 0,
            "byteLength" : 473216,
            "byteOffset" : 850128
        },
        {
            "buffer" : 0,
            "byteLength" : 236608,
            "byteOffset" : 1323344
        },
        {
            "buffer" : 0,
            "byteLength" : 342912,
            "byteOffset" : 1559952
        }
    ],
    "buffers" : [
        {
            "byteLength" : 1902864,
            "uri" : "scene.bin"
        }
    ]
}
